# xmcd CD database file
#
# Track frame offsets:
#	150
#	16073
#	30813
#	43280
#	58813
#	72945
#	86435
#	134015
#	147388
#	159468
#	172910
#	186170
#	199770
#	214958
#	229395
#	242970
#	258363
#	274615
#
# Disc length: 4025 seconds
#
# Revision: 0
# Processed by: cddbd v1.5.2PL0 Copyright (c) Steve Scherf et al.
# Submitted via: CDex 1.70beta2
#
DISCID=070fb712
DTITLE=Charlie Parker - Confirmation, Best Of The Verve Years cd1
DYEAR=1947
DGENRE=Jazz
TTITLE0=Just friends
TTITLE1=Swedish schnapps
TTITLE2=Laird Baird
TTITLE3=K.C. blues
TTITLE4=April In Paris
TTITLE5=Laura
TTITLE6=Embraceable you
TTITLE7=Ballade
TTITLE8=Au privave
TTITLE9=The song is you
TTITLE10=Mango Mangue
TTITLE11=Confirmation
TTITLE12=Segment
TTITLE13=She rote
TTITLE14=Kim
TTITLE15=In the still of the night
TTITLE16=Star eyes
TTITLE17=How high the moon?
EXTD=YEAR: 1947
EXTT0=
EXTT1=
EXTT2=
EXTT3=
EXTT4=
EXTT5=
EXTT6=
EXTT7=
EXTT8=
EXTT9=
EXTT10=
EXTT11=
EXTT12=
EXTT13=
EXTT14=
EXTT15=
EXTT16=
EXTT17=
PLAYORDER=
